<?xml version="1.0" encoding="utf-8"?>
<!-- Generator: Adobe Illustrator 17.0.0, SVG Export Plug-In . SVG Version: 6.00 Build 0)  -->
<!DOCTYPE svg PUBLIC "-//W3C//DTD SVG 1.1//EN" "http://www.w3.org/Graphics/SVG/1.1/DTD/svg11.dtd">
<svg version="1.1" id="Layer_1" xmlns="http://www.w3.org/2000/svg" xmlns:xlink="http://www.w3.org/1999/xlink" x="0px" y="0px"
	 width="1366px" height="768px" viewBox="0 0 1366 768" enable-background="new 0 0 1366 768" xml:space="preserve">
<circle fill="none" stroke="#CCCCCC" stroke-width="5" stroke-linecap="round" stroke-miterlimit="10" cx="765.129" cy="226.225" r="143.552"/>
<rect x="706.379" y="168.5" fill="none" stroke="#CCCCCC" stroke-linecap="round" stroke-miterlimit="10" width="117.5" height="74"/>
<g id="XMLID_1_">
	<path fill="none" stroke="#CCCCCC" stroke-width="5" stroke-linecap="round" stroke-miterlimit="10" d="M748.88,273.4l-29.91,10.18
		c-1.61,0.55-1.21,2.92,0.48,2.92h29.43h32.5h29.43c1.69,0,2.09-2.37,0.48-2.92l-29.91-10.18V254h-32.5V273.4z"/>
	<polygon fill="none" stroke="#CCCCCC" stroke-width="5" stroke-linecap="round" stroke-miterlimit="10" points="832.88,159.5 
		832.88,254 781.38,254 748.88,254 697.38,254 697.38,159.5 	"/>
</g>
<rect x="686.128" y="262.451" fill="none" stroke="#CCCCCC" stroke-width="5" stroke-linecap="round" stroke-miterlimit="10" width="24.488" height="24.197"/>
<circle fill="none" stroke="#CCCCCC" stroke-width="5" stroke-linecap="round" stroke-miterlimit="10" cx="698.372" cy="274.549" r="6"/>
<rect x="820.128" y="262.451" fill="none" stroke="#CCCCCC" stroke-width="5" stroke-linecap="round" stroke-miterlimit="10" width="24.488" height="24.197"/>
<circle fill="none" stroke="#CCCCCC" stroke-width="5" stroke-linecap="round" stroke-miterlimit="10" cx="832.372" cy="274.549" r="6"/>
</svg>
