<?xml version="1.0" encoding="utf-8"?>
<!-- Generator: Adobe Illustrator 21.1.0, SVG Export Plug-In . SVG Version: 6.00 Build 0)  -->
<svg version="1.1" id="Layer_1" xmlns="http://www.w3.org/2000/svg" xmlns:xlink="http://www.w3.org/1999/xlink" x="0px" y="0px"
	 viewBox="0 0 1366 768" style="enable-background:new 0 0 1366 768;" xml:space="preserve">
<style type="text/css">
	.st0{fill:none;stroke:#CCCCCC;stroke-width:5;stroke-linecap:round;stroke-miterlimit:10;}
	.st1{fill:#CCCCCC;}
</style>
<circle class="st0" cx="765.1" cy="217" r="143.6"/>
<circle class="st0" cx="765.1" cy="217" r="60.4"/>
<path class="st0" d="M840.6,189.5c0,0,19.4,24.7,0,53.5"/>
<path class="st0" d="M853.6,184c0,0,23.4,29.6,0,63.9"/>
<path class="st0" d="M786,273.7c0,0,29.5,10.8,39.5-16.2"/>
<circle class="st1" cx="826" cy="255" r="7"/>
<path class="st0" d="M689,242.4c0,0-19.4-24.7,0-53.5"/>
<path class="st0" d="M676,247.9c0,0-23.4-29.6,0-63.9"/>
<path class="st1" d="M746.7,202c7,4.2,8.4,10.3,7.5,17.4c2.5-3.6,3.3-7.3,2-11.5c-1.7-5.4-2.4-10.8-0.9-16.3
	c1.6-5.7,5.1-9.9,10.1-12.8c0.3-0.2,0.6-0.3,0.9-0.4c0.1,0,0.2,0,0.5,0.1c-6,12.9-1,23,8.3,32.7c-0.1-7.6,3.9-11.6,10.1-14.8
	c-3.3,7.5-0.8,14,1.6,20.5c1.1,3,2.3,6,2.9,9.2c1.2,6-0.8,11-5.3,15.1c-2.9,2.6-6.3,4.2-10.4,5.5c0.4-0.5,0.6-0.8,0.8-1
	c3.2-2.9,4-5.9,1.8-9.6c-1.6-2.7-3.1-5.3-2.3-9c-3.4,2.7-3.2,5.7-2.4,9c-2.1-1.3-2.7-4-2.2-6.8c0.4-2.5,0.7-5.2,0.5-7.7
	c-0.2-2.5-1.9-4.4-4.4-6c2.1,6.7-0.6,11.5-5.4,16.1c0.2-3.3-0.8-5.6-3.5-7c0.7,3.5-0.3,6.5-1.6,9.5c-2.6,5.8-1.4,10.5,4.2,13
	c0.2,0.1,0.2,0.3,0.6,0.7c-7-1.3-13.2-3.5-17.5-9.1c-2.9-3.8-3.4-8.3-1.9-12.7c0.8-2.6,1.9-5.3,3.6-7.4c3-3.8,3.5-8,3.1-12.5
	C747.1,204.9,746.9,203.7,746.7,202z"/>
</svg>
