<?xml version="1.0" encoding="utf-8"?>
<!-- Generator: Adobe Illustrator 17.0.0, SVG Export Plug-In . SVG Version: 6.00 Build 0)  -->
<!DOCTYPE svg PUBLIC "-//W3C//DTD SVG 1.1//EN" "http://www.w3.org/Graphics/SVG/1.1/DTD/svg11.dtd">
<svg version="1.1" id="Layer_1" xmlns="http://www.w3.org/2000/svg" xmlns:xlink="http://www.w3.org/1999/xlink" x="0px" y="0px"
	 width="1366px" height="768px" viewBox="0 0 1366 768" enable-background="new 0 0 1366 768" xml:space="preserve">
<circle fill="none" stroke="#CCCCCC" stroke-width="5" stroke-linecap="round" stroke-miterlimit="10" cx="757.013" cy="206.086" r="143.552"/>
<g id="XMLID_1_">
	<path fill="none" stroke="#CCCCCC" stroke-width="5" stroke-linecap="round" stroke-miterlimit="10" d="M771.624,248.492V122.374
		c0-6.105-4.947-11.064-11.064-11.064h-7.095c-6.116,0-11.064,4.958-11.064,11.064v126.118c-7.983,4.902-13.301,13.717-13.301,23.78
		c0,15.415,12.491,27.917,27.917,27.917c15.415,0,27.906-12.503,27.906-27.917C784.924,262.209,779.606,253.394,771.624,248.492z"/>
</g>
<circle fill="#CCCCCC" stroke="#CCCCCC" stroke-miterlimit="10" cx="757.013" cy="272.5" r="21.5"/>
<g id="XMLID_2_">
	<path fill="#CCCCCC" stroke="#CCCCCC" stroke-miterlimit="10" d="M765.761,225v23.414c-2.306-0.825-5.41-1.327-8.819-1.327
		c-3.341,0-6.386,0.483-8.678,1.276V225H765.761z"/>
</g>
<g id="XMLID_3_">
	<rect x="748.264" y="202" fill="#CCCCCC" stroke="#CCCCCC" stroke-miterlimit="10" width="17.497" height="17.725"/>
</g>
<g id="XMLID_4_">
	<rect x="748.266" y="186" fill="#CCCCCC" stroke="#CCCCCC" stroke-miterlimit="10" width="17.497" height="10.726"/>
</g>
</svg>
