<?xml version="1.0" encoding="utf-8"?>
<!-- Generator: Adobe Illustrator 21.0.2, SVG Export Plug-In . SVG Version: 6.00 Build 0)  -->
<svg version="1.1" id="Layer_1" xmlns="http://www.w3.org/2000/svg" xmlns:xlink="http://www.w3.org/1999/xlink" x="0px" y="0px"
	 viewBox="0 0 1366 768" style="enable-background:new 0 0 1366 768;" xml:space="preserve">
<style type="text/css">
	.st0{fill:#FFFFFF;stroke:#808080;stroke-width:5;stroke-linecap:round;stroke-miterlimit:10;}
	.st1{fill:none;stroke:#808080;stroke-width:5;stroke-linecap:round;stroke-miterlimit:10;}
	.st2{fill:#808080;}
</style>
<circle class="st0" cx="757" cy="206.1" r="143.6"/>
<g id="XMLID_1_">
	<path class="st1" d="M771.6,248.5V122.4c0-6.1-4.9-11.1-11.1-11.1h-7.1c-6.1,0-11.1,5-11.1,11.1v126.1c-8,4.9-13.3,13.7-13.3,23.8
		c0,15.4,12.5,27.9,27.9,27.9s27.9-12.5,27.9-27.9C784.9,262.2,779.6,253.4,771.6,248.5z"/>
</g>
<circle class="st2" cx="757" cy="272.5" r="21.5"/>
<g id="XMLID_2_">
	<path class="st2" d="M765.8,225v23.4c-2.3-0.8-5.4-1.3-8.8-1.3c-3.3,0-6.4,0.5-8.7,1.3V225H765.8z"/>
</g>
<g id="XMLID_3_">
	<rect x="748.3" y="202" class="st2" width="17.5" height="17.7"/>
</g>
<g id="XMLID_4_">
	<rect x="748.3" y="186" class="st2" width="17.5" height="10.7"/>
</g>
</svg>
