<?xml version="1.0" encoding="utf-8"?>
<!-- Generator: Adobe Illustrator 17.0.0, SVG Export Plug-In . SVG Version: 6.00 Build 0)  -->
<!DOCTYPE svg PUBLIC "-//W3C//DTD SVG 1.1//EN" "http://www.w3.org/Graphics/SVG/1.1/DTD/svg11.dtd">
<svg version="1.1" id="Layer_1" xmlns="http://www.w3.org/2000/svg" xmlns:xlink="http://www.w3.org/1999/xlink" x="0px" y="0px"
	 width="1366px" height="768px" viewBox="0 0 1366 768" enable-background="new 0 0 1366 768" xml:space="preserve">
<g id="XMLID_1_">
	<path fill="#CCCCCC" stroke="#CCCCCC" stroke-miterlimit="10" d="M768.483,302.136c-0.95,0.41-2.02,0.41-2.96,0l-6.37-2.79
		c-3.66-1.6-2.52-7.07,1.48-7.07h12.74c3.99,0,5.14,5.47,1.47,7.07L768.483,302.136z"/>
	<path fill="#CCCCCC" stroke="#CCCCCC" stroke-miterlimit="10" d="M792.503,274.906v1.75c0,0.89-0.73,1.62-1.63,1.62h-46.74
		c-0.9,0-1.63-0.73-1.63-1.62v-1.75c0-0.9,0.73-1.63,1.63-1.63h46.74C791.773,273.276,792.503,274.006,792.503,274.906z"/>
	<path fill="#CCCCCC" stroke="#CCCCCC" stroke-miterlimit="10" d="M788.003,283.906v0.8c0,0.89-0.73,1.62-1.63,1.62h-37.24
		c-0.9,0-1.63-0.73-1.63-1.62v-0.8c0-0.9,0.73-1.63,1.63-1.63h37.24C787.273,282.276,788.003,283.006,788.003,283.906z"/>
	<path fill="none" stroke="#CCCCCC" stroke-width="5" stroke-linecap="round" stroke-miterlimit="10" d="M737.973,245.036v12.47
		c0,3.84,3.11,6.96,6.95,6.96h44.29c3.84,0,6.96-3.12,6.96-6.96v-12.39c13.19-9.18,21.82-24.46,21.82-41.75
		c0-28.09-22.77-50.86-50.86-50.86s-50.86,22.77-50.86,50.86C716.273,220.606,724.853,235.836,737.973,245.036z"/>
</g>
<circle fill="none" stroke="#CCCCCC" stroke-width="5" stroke-linecap="round" stroke-miterlimit="10" cx="767.133" cy="226.225" r="143.552"/>
<path fill="none" stroke="#CCCCCC" stroke-width="5" stroke-linecap="round" stroke-miterlimit="10" d="M773.85,243.68
	c1.665-23.456,9.736-31.68,9.736-31.68"/>
<path fill="none" stroke="#CCCCCC" stroke-width="5" stroke-linecap="round" stroke-miterlimit="10" d="M761.586,243.68
	c-1.665-23.456-9.736-31.68-9.736-31.68"/>
<line fill="none" stroke="#CCCCCC" stroke-width="2" stroke-linecap="round" stroke-miterlimit="10" x1="751.5" y1="211.5" x2="783.5" y2="211.5"/>
</svg>
