<?xml version="1.0" encoding="utf-8"?>
<!-- Generator: Adobe Illustrator 21.1.0, SVG Export Plug-In . SVG Version: 6.00 Build 0)  -->
<svg version="1.1" id="Layer_1" xmlns="http://www.w3.org/2000/svg" xmlns:xlink="http://www.w3.org/1999/xlink" x="0px" y="0px"
	 viewBox="0 0 1366 768" style="enable-background:new 0 0 1366 768;" xml:space="preserve">
<style type="text/css">
	.st0{fill:none;stroke:#CCCCCC;stroke-width:10;stroke-linecap:round;stroke-miterlimit:10;}
	.st1{fill:#CCCCCC;}
	.st2{fill:none;stroke:#CCCCCC;stroke-width:5;stroke-linecap:round;stroke-miterlimit:10;}
</style>
<circle class="st0" cx="1068.3" cy="199.1" r="143.6"/>
<g id="XMLID_1_">
	<g>
		<path class="st1" d="M1112.5,256.5v1.9c0,5.6-4.5,10.1-10.1,10.1h-68.8c-5.6,0-10.1-4.5-10.1-10.1v-1.9H1112.5z"/>
		<path class="st1" d="M1112.5,243v13.5h-89v-14.6c0-16.6,6.7-24.3,21.1-29.9c0,0,23.4,19.9,46.7,0
			C1102.5,215.4,1112.5,220.9,1112.5,243z"/>
		<path class="st1" d="M1068,129.5c20.2,0,36.5,16.3,36.5,36.5c0,10-4,19-10.5,25.6l-18.1-28.2c-3.8-5.9-12.5-5.9-16.3,0l-17.9,27.8
			c-6.3-6.6-10.2-15.5-10.2-25.3C1031.5,145.8,1047.8,129.5,1068,129.5z"/>
		<path class="st1" d="M1094,191.6c-6.6,6.7-15.8,10.9-26,10.9c-10.3,0-19.7-4.3-26.3-11.2l17.9-27.8c3.8-5.9,12.5-5.9,16.3,0
			L1094,191.6z"/>
	</g>
	<g>
		<path class="st2" d="M1041.7,191.3c-6.3-6.6-10.2-15.5-10.2-25.3c0-20.2,16.3-36.5,36.5-36.5c20.2,0,36.5,16.3,36.5,36.5
			c0,10-4,19-10.5,25.6c-6.6,6.7-15.8,10.9-26,10.9C1057.7,202.5,1048.3,198.2,1041.7,191.3z"/>
		<path class="st2" d="M1023.5,256.5v-14.6c0-16.6,6.7-24.3,21.1-29.9c0,0,23.4,19.9,46.7,0c11.1,3.3,21.1,8.9,21.1,31v13.5v1.9
			c0,5.6-4.5,10.1-10.1,10.1h-68.8c-5.6,0-10.1-4.5-10.1-10.1V256.5z"/>
	</g>
</g>
</svg>
