<?xml version="1.0" encoding="utf-8"?>
<!-- Generator: Adobe Illustrator 21.0.2, SVG Export Plug-In . SVG Version: 6.00 Build 0)  -->
<svg version="1.1" id="Layer_1" xmlns="http://www.w3.org/2000/svg" xmlns:xlink="http://www.w3.org/1999/xlink" x="0px" y="0px"
	 viewBox="0 0 1366 768" style="enable-background:new 0 0 1366 768;" xml:space="preserve">
<style type="text/css">
	.st0{fill:#FFFFFF;stroke:#808080;stroke-width:5;stroke-linecap:round;stroke-miterlimit:10;}
	.st1{fill:none;stroke:#808080;stroke-width:5;stroke-linecap:round;stroke-miterlimit:10;}
</style>
<circle class="st0" cx="683.1" cy="194.9" r="143.6"/>
<g id="XMLID_1_">
	<path class="st1" d="M656.1,188.4h54h12.4h3.9c3.9,0,7,3.1,7,7V255c0,3.9-3.1,7-7,7h-86.5c-3.9,0-7-3.1-7-7v-59.5c0-3.9,3.1-7,7-7
		h3.9h12.3V188.4z"/>
	<path class="st1" d="M710.1,158.9v29.6h-54v-29.6c0-11.4,9.2-20.6,20.7-20.6h12.7C700.9,138.2,710.1,147.5,710.1,158.9z"/>
	<path class="st1" d="M722.5,159.5v29h-12.4v-29.6c0-11.4-9.2-20.6-20.7-20.6h-12.7c-11.4,0-20.7,9.2-20.7,20.6v29.6h-12.4v-29
		c0-18.7,15.1-33.8,33.8-33.8h11.2C707.4,125.7,722.5,140.8,722.5,159.5z"/>
</g>
</svg>
