<?xml version="1.0" encoding="utf-8"?>
<!-- Generator: Adobe Illustrator 17.0.0, SVG Export Plug-In . SVG Version: 6.00 Build 0)  -->
<!DOCTYPE svg PUBLIC "-//W3C//DTD SVG 1.1//EN" "http://www.w3.org/Graphics/SVG/1.1/DTD/svg11.dtd">
<svg version="1.1" id="Layer_1" xmlns="http://www.w3.org/2000/svg" xmlns:xlink="http://www.w3.org/1999/xlink" x="0px" y="0px"
	 width="1366px" height="768px" viewBox="0 0 1366 768" enable-background="new 0 0 1366 768" xml:space="preserve">
<circle fill="none" stroke="#CCCCCC" stroke-width="5" stroke-linecap="round" stroke-miterlimit="10" cx="683.142" cy="194.852" r="143.552"/>
<g id="XMLID_1_">
	<path fill="none" stroke="#CCCCCC" stroke-width="5" stroke-linecap="round" stroke-miterlimit="10" d="M656.147,188.447h53.98
		h12.39h3.86c3.87,0,7.01,3.14,7.01,7.02v59.5c0,3.88-3.14,7.02-7.01,7.02h-86.47c-3.87,0-7.01-3.14-7.01-7.02v-59.5
		c0-3.88,3.14-7.02,7.01-7.02h3.86H656.147z"/>
	<path fill="none" stroke="#CCCCCC" stroke-width="5" stroke-linecap="round" stroke-miterlimit="10" d="M710.127,158.877v29.57
		h-53.98v-29.57c0-11.41,9.25-20.65,20.65-20.65h12.68C700.877,138.227,710.127,147.467,710.127,158.877z"/>
	<path fill="none" stroke="#CCCCCC" stroke-width="5" stroke-linecap="round" stroke-miterlimit="10" d="M722.517,159.497v28.95
		h-12.39v-29.57c0-11.41-9.25-20.65-20.65-20.65h-12.68c-11.4,0-20.65,9.24-20.65,20.65v29.57h-12.38v-28.95
		c0-18.66,15.12-33.78,33.78-33.78h11.19C707.387,125.717,722.517,140.837,722.517,159.497z"/>
</g>
</svg>
